<svg width="656" height="576" viewBox="0 0 656 576" fill="none" xmlns="http://www.w3.org/2000/svg">
<g opacity="0.05">
<path d="M90.1974 467.868C25.542 442.266 -5.79414 361.987 26.2361 301.058C53.903 242.014 132.937 218.694 187.676 253.426L224.169 275.753L207.112 235.762C168.141 148.041 205.328 39.7775 290.014 -5.27419C447.984 -88.1336 619.439 70.1428 551.512 234.671L535.744 272.082L570.65 252.632C627.373 219.687 705.911 247.075 730.702 308.103C760.055 371.811 722.075 450.8 655.734 471.639C730.306 456.357 773.938 372.505 747.064 301.653C724.356 236.656 652.561 201.329 587.806 216.809C642.942 35.4113 449.074 -130.308 273.454 -35.3417C184.503 12.1908 141.366 121.942 170.124 216.71C107.452 200.138 35.756 231.694 10.5682 293.714C-19.7762 362.284 17.807 447.327 90.2964 467.769L90.1974 467.868Z" fill="#F26522"/>
<path d="M97.9306 422.717C117.069 474.517 139.381 524.828 161.396 575.338C195.905 552.415 236.464 536.438 276.824 526.019C349.016 507.165 426.067 506.47 499.052 521.653C541.296 528.996 581.458 544.675 622.016 558.071C625.586 532.171 630.643 499.424 633.618 473.525C636.693 449.51 639.271 425.496 641.353 401.283C630.048 435.915 620.132 470.647 610.711 505.775C610.711 505.775 607.736 516.889 605.059 527.011C591.176 520.561 576.995 513.912 563.013 508.554C469.6 472.632 364.089 465.09 267.998 495.257C233.092 505.974 200.665 520.66 170.42 541.102C147.116 501.111 123.515 461.319 97.8313 422.618L97.9306 422.717Z" fill="#F26522"/>
<path d="M231.407 181.185C233.39 197.26 237.753 213.038 243.604 228.122C245.786 232.885 252.033 244.594 254.512 249.457C260.165 258.487 266.511 267.021 273.254 274.96C269.784 259.976 264.627 245.091 261.652 230.206C260.561 226.336 259.173 219.489 258.677 215.618C257.091 207.184 255.306 195.176 254.81 186.444C250.149 136.828 262.445 88.4019 285.848 43.9456C244.397 74.7077 226.052 130.576 231.506 181.085L231.407 181.185Z" fill="#319C6B"/>
<path d="M699.069 310.683C697.482 314.95 696.491 319.217 695.102 323.385C686.574 352.162 668.13 376.574 641.454 391.062C674.476 388.581 699.366 356.231 699.961 324.278C699.961 319.713 699.664 315.248 699.069 310.782V310.683Z" fill="#319C6B"/>
</g>
</svg>
